<?xml version="1.0" standalone="no"?>
<!DOCTYPE svg PUBLIC "-//W3C//DTD SVG 20010904//EN"
 "http://www.w3.org/TR/2001/REC-SVG-20010904/DTD/svg10.dtd">
<svg version="1.0" xmlns="http://www.w3.org/2000/svg"
 width="860.000000pt" height="1280.000000pt" viewBox="0 0 860.000000 1280.000000"
 preserveAspectRatio="xMidYMid meet">
<metadata>
Created by potrace 1.15, written by Peter Selinger 2001-2017
</metadata>
<g transform="translate(0.000000,1280.000000) scale(0.100000,-0.100000)"
fill="#000000" stroke="none">
<path d="M5365 11878 c-2341 -1994 -3206 -2728 -3215 -2728 -8 0 -721 603
-1952 1652 l-198 169 0 -915 0 -914 1066 -907 c586 -498 1072 -909 1078 -911
7 -3 487 399 1067 892 580 493 1544 1314 2143 1823 598 509 1092 926 1096 926
4 0 484 -405 1066 -900 581 -495 1063 -904 1071 -908 11 -7 13 148 12 905 l0
913 -1071 910 c-589 501 -1074 911 -1077 912 -3 1 -492 -413 -1086 -919z"/>
<path d="M5385 9509 c-2854 -2427 -3228 -2744 -3235 -2744 -4 0 -484 405
-1065 900 -582 495 -1064 904 -1072 908 -11 7 -13 -146 -12 -905 l0 -913 1075
-912 1074 -913 1097 933 c603 512 1569 1334 2147 1825 577 490 1052 892 1056
892 4 0 467 -392 1031 -871 563 -479 1045 -889 1072 -911 l47 -40 0 914 0 914
-1070 909 c-588 501 -1073 911 -1077 912 -5 2 -485 -403 -1068 -898z"/>
<path d="M5384 7049 c-582 -496 -1546 -1316 -2142 -1822 -596 -507 -1087 -922
-1092 -922 -5 0 -482 403 -1061 895 -579 492 -1060 901 -1071 908 -17 13 -18
-15 -18 -900 l1 -913 1074 -913 1075 -913 1073 913 c590 502 1553 1322 2140
1821 587 499 1073 910 1081 913 8 3 423 -343 1057 -882 574 -488 1056 -898
1072 -912 l27 -26 0 916 0 916 -1072 911 c-589 501 -1074 911 -1078 911 -4 0
-484 -405 -1066 -901z"/>
<path d="M5389 4584 c-580 -493 -1544 -1314 -2143 -1823 -598 -509 -1092 -926
-1096 -926 -4 0 -484 405 -1066 900 -581 495 -1063 904 -1071 908 -11 7 -13
-148 -12 -905 l0 -913 1075 -913 1074 -912 1102 937 c606 516 1571 1337 2145
1826 574 488 1048 887 1053 887 8 0 721 -603 1953 -1652 l197 -169 0 915 0
914 -1066 907 c-586 498 -1072 909 -1078 911 -7 3 -487 -399 -1067 -892z"/>
</g>
</svg>
