<?xml version="1.0" standalone="no"?>
<!DOCTYPE svg PUBLIC "-//W3C//DTD SVG 20010904//EN"
 "http://www.w3.org/TR/2001/REC-SVG-20010904/DTD/svg10.dtd">
<svg version="1.0" xmlns="http://www.w3.org/2000/svg"
 width="1280.000000pt" height="886.000000pt" viewBox="0 0 1280.000000 886.000000"
 preserveAspectRatio="xMidYMid meet">
<metadata>
Created by potrace 1.15, written by Peter Selinger 2001-2017
</metadata>
<g transform="translate(0.000000,886.000000) scale(0.100000,-0.100000)"
fill="#000000" stroke="none">
<path d="M0 8370 l0 -490 6400 0 6400 0 0 490 0 490 -6400 0 -6400 0 0 -490z"/>
<path d="M0 6400 l0 -490 4430 0 4430 0 0 490 0 490 -4430 0 -4430 0 0 -490z"/>
<path d="M0 4430 l0 -490 6400 0 6400 0 0 490 0 490 -6400 0 -6400 0 0 -490z"/>
<path d="M0 2460 l0 -490 4430 0 4430 0 0 490 0 490 -4430 0 -4430 0 0 -490z"/>
<path d="M0 490 l0 -490 6400 0 6400 0 0 490 0 490 -6400 0 -6400 0 0 -490z"/>
</g>
</svg>
