<?xml version="1.0" standalone="no"?>
<!DOCTYPE svg PUBLIC "-//W3C//DTD SVG 20010904//EN"
 "http://www.w3.org/TR/2001/REC-SVG-20010904/DTD/svg10.dtd">
<svg version="1.0" xmlns="http://www.w3.org/2000/svg"
 width="1111.000000pt" height="1280.000000pt" viewBox="0 0 1111.000000 1280.000000"
 preserveAspectRatio="xMidYMid meet">
<metadata>
Created by potrace 1.15, written by Peter Selinger 2001-2017
</metadata>
<g transform="translate(0.000000,1280.000000) scale(0.100000,-0.100000)"
fill="#000000" stroke="none">
<path d="M4595 12640 l-160 -160 -150 150 -150 150 -240 0 -240 0 -160 -160
-159 -160 -151 150 -151 150 -240 0 -240 0 -162 -163 -161 -163 -153 153 -153
153 -245 0 -246 0 -157 -158 -156 -158 -153 153 -153 153 -245 0 -246 0 -157
-158 -157 -158 0 -215 0 -214 157 -157 157 -158 -157 -158 -157 -158 0 -215 0
-214 157 -157 158 -158 -158 -158 -157 -157 0 -215 0 -215 157 -157 158 -158
-158 -158 -157 -157 0 -225 0 -225 152 -152 153 -153 -153 -153 -152 -152 0
-225 0 -225 152 -152 153 -153 -153 -153 -152 -152 0 -225 0 -225 152 -152
153 -153 -153 -153 -152 -152 0 -225 0 -225 152 -152 153 -153 -153 -153 -152
-152 0 -220 0 -220 150 -150 c82 -82 150 -154 150 -160 0 -6 -67 -78 -150
-160 l-150 -150 0 -220 0 -220 152 -152 153 -153 -158 -158 -157 -157 0 -220
0 -220 155 -155 155 -155 -155 -155 -155 -155 0 -220 0 -220 155 -155 155
-155 -155 -155 -155 -155 0 -220 0 -220 158 -158 157 -157 240 0 240 0 160
160 160 160 155 -155 155 -155 240 0 240 0 160 160 161 161 149 -151 149 -150
250 0 251 0 157 157 158 158 148 -148 147 -147 246 0 245 0 159 160 159 161
151 -151 150 -150 250 0 250 0 155 155 155 155 155 -155 155 -155 245 0 245 0
152 152 153 153 153 -153 152 -152 245 0 245 0 145 145 145 145 160 -160 160
-160 245 0 245 0 155 155 155 155 155 -155 155 -155 250 0 250 0 155 155 155
155 155 -155 155 -155 245 0 245 0 158 158 157 157 0 215 0 215 -157 157 -158
158 158 158 157 157 0 215 0 215 -157 157 -158 158 158 158 157 157 0 215 0
215 -157 157 -158 158 158 158 157 157 0 220 0 220 -150 150 c-83 82 -150 154
-150 160 0 6 68 78 150 160 l150 150 0 220 0 220 -150 150 c-83 82 -150 154
-150 160 0 6 67 78 150 160 l150 150 0 220 0 220 -152 152 -153 153 153 153
152 152 0 225 0 225 -152 152 -153 153 153 153 152 152 0 225 0 225 -152 152
-153 153 153 153 152 152 0 225 0 225 -152 152 -153 153 158 158 157 157 0
220 0 220 -155 155 -155 155 155 155 155 155 0 220 0 220 -155 155 -155 155
155 155 155 155 0 220 0 220 -158 158 -157 157 -240 0 -240 0 -160 -160 -160
-160 -160 160 -160 160 -240 0 -240 0 -157 -157 -158 -158 -158 158 -157 157
-240 0 -240 0 -145 -145 -146 -146 -159 161 -159 160 -246 0 -245 0 -155 -155
-155 -155 -155 155 -155 155 -245 0 -245 0 -152 -152 -153 -153 -153 153 -152
152 -255 0 -255 0 -160 -160z m1130 -750 l150 -150 -153 -153 -152 -152 -152
152 -153 153 150 150 c82 82 152 150 155 150 3 0 73 -68 155 -150z m1103 -307
l-153 -153 -152 152 -153 153 152 152 153 153 152 -152 153 -153 -152 -152z
m-2235 -5 l-158 -158 -147 147 -148 148 157 157 158 158 147 -147 148 -148
-157 -157z m3342 -18 c-79 -79 -146 -142 -147 -139 -2 2 -73 75 -158 162
l-155 157 143 143 142 143 160 -161 160 -160 -145 -145z m-4295 152 c0 -4 -69
-75 -152 -159 l-153 -153 -147 147 -148 148 156 156 157 157 143 -144 c79 -79
144 -148 144 -152z m5398 145 l152 -152 -155 -155 -155 -155 -150 150 c-82 82
-150 154 -150 160 0 10 290 305 300 305 3 0 74 -69 158 -153z m1114 6 c82 -81
148 -152 148 -158 0 -5 -68 -77 -150 -160 l-151 -151 -154 156 -155 155 153
153 c83 83 154 152 157 152 3 0 71 -66 152 -147z m-7757 -23 l150 -150 -158
-157 -157 -158 -150 150 -150 150 153 156 c83 86 154 157 157 158 3 0 73 -67
155 -149z m-1110 -10 l149 -150 -156 -158 -157 -158 -151 150 -150 151 153
156 c83 86 154 157 157 158 3 0 73 -66 155 -149z m3310 -1310 l-160 -160 -147
147 -148 148 158 160 157 161 150 -148 150 -148 -160 -160z m1130 310 l150
-150 -153 -153 -152 -152 -152 152 -153 153 150 150 c82 82 152 150 155 150 3
0 73 -68 155 -150z m1103 -307 l-153 -153 -152 152 -153 153 152 152 153 153
152 -152 153 -153 -152 -152z m1242 121 c0 -11 -278 -290 -282 -283 -2 3 -73
75 -158 162 l-155 157 143 143 143 143 154 -156 c85 -86 155 -160 155 -166z
m-4433 13 c-1 -4 -70 -76 -154 -160 l-152 -153 -145 145 -146 146 157 157 158
158 142 -142 c79 -79 142 -146 140 -151z m5401 140 l152 -152 -155 -155 -155
-155 -141 140 c-77 77 -145 148 -151 159 -9 16 10 39 138 167 82 82 151 149
154 149 3 0 74 -69 158 -153z m1114 6 c82 -81 148 -152 148 -158 0 -6 -68 -78
-150 -160 l-150 -150 -155 155 -155 155 152 152 c84 84 155 153 158 153 3 0
71 -66 152 -147z m-7757 -23 l150 -150 -158 -158 -157 -157 -152 153 -153 152
155 155 c85 85 157 155 160 155 3 0 73 -68 155 -150z m-1110 -10 l150 -150
-158 -158 -157 -157 -152 153 -153 152 155 155 c85 85 157 155 160 155 3 0 73
-68 155 -150z m3463 -1152 c-2 -4 -74 -79 -160 -166 l-158 -158 -147 148 -148
147 160 163 160 163 148 -145 c81 -80 146 -148 145 -152z m977 152 l150 -150
-158 -158 -157 -157 -152 153 -153 152 155 155 c85 85 157 155 160 155 3 0 73
-68 155 -150z m1110 0 l150 -150 -158 -157 -157 -158 -153 153 -153 153 156
154 c85 85 157 155 160 155 3 0 73 -68 155 -150z m1092 -328 l-147 -147 -157
157 -158 158 148 148 148 148 157 -158 157 -158 -148 -148z m-4444 -5 l-162
-163 -146 146 -145 145 162 162 163 163 145 -145 145 -145 -162 -163z m5554
301 l153 -153 -152 -152 c-84 -84 -157 -153 -163 -153 -6 0 -78 68 -160 150
l-150 150 155 155 c85 85 157 155 160 155 3 0 73 -69 157 -152z m1118 2 l150
-150 -158 -158 -158 -158 -152 153 -151 153 154 155 c85 85 157 155 160 155 3
0 73 -68 155 -150z m-7770 -330 l-160 -160 -152 152 -153 153 160 160 161 161
152 -153 151 -153 -159 -160z m-1100 300 l150 -150 -160 -160 -160 -160 -153
152 -153 152 158 158 c87 87 160 158 163 158 3 0 73 -68 155 -150z m5537
-1312 l-152 -153 -155 155 -155 155 152 152 153 153 155 -155 155 -155 -153
-152z m-2234 -6 l-157 -158 -148 148 -148 148 155 158 155 158 150 -148 150
-148 -157 -158z m1127 308 l150 -150 -153 -153 -152 -152 -152 152 -153 153
150 150 c82 82 152 150 155 150 3 0 73 -68 155 -150z m2210 -320 l-145 -145
-157 157 -158 158 145 145 145 145 157 -157 158 -158 -145 -145z m1103 297
l153 -153 -153 -152 -153 -152 -155 155 -155 155 150 150 c82 82 152 150 155
150 3 0 74 -69 158 -153z m1120 0 l152 -152 -155 -155 -155 -155 -155 155
-155 155 152 152 c84 84 155 153 158 153 3 0 74 -69 158 -153z m-6670 -304
l-158 -158 -145 145 -145 145 157 157 158 158 145 -145 145 -145 -157 -157z
m-948 132 c0 -5 -69 -78 -152 -162 l-153 -153 -152 152 -153 153 157 157 158
158 147 -147 c82 -81 148 -152 148 -158z m-1255 135 l150 -150 -155 -155 -155
-155 -152 152 -153 153 152 152 c84 84 155 153 158 153 3 0 73 -68 155 -150z
m5547 -1302 l-152 -153 -155 155 -155 155 152 152 153 153 155 -155 155 -155
-153 -152z m-2234 -6 l-157 -158 -148 148 -148 148 155 158 155 158 150 -148
150 -148 -157 -158z m1127 308 l150 -150 -153 -153 -152 -152 -152 152 -153
153 150 150 c82 82 152 150 155 150 3 0 73 -68 155 -150z m2212 -318 l-143
-143 -157 158 -157 158 143 143 142 142 157 -157 158 -158 -143 -143z m1101
295 l152 -152 -153 -153 -152 -152 -155 155 -155 155 150 150 c82 82 152 150
155 150 3 0 74 -69 158 -153z m1120 0 l152 -152 -155 -155 -155 -155 -155 155
-155 155 152 152 c84 84 155 153 158 153 3 0 74 -69 158 -153z m-6670 -304
l-158 -158 -140 140 c-77 77 -140 144 -140 150 0 5 69 78 152 162 l153 153
145 -145 145 -145 -157 -157z m-948 133 c0 -6 -69 -79 -152 -163 l-153 -153
-153 153 -152 152 157 157 158 158 147 -147 c82 -81 148 -152 148 -157z
m-1110 -11 c0 -5 -69 -78 -152 -162 l-153 -153 -152 152 -153 153 157 157 158
158 147 -147 c82 -81 148 -152 148 -158z m5402 -1157 l-152 -153 -155 155
-155 155 152 152 153 153 155 -155 155 -155 -153 -152z m-2234 -6 l-157 -158
-148 148 -148 148 155 158 155 158 150 -148 150 -148 -157 -158z m1129 316
c79 -79 143 -147 143 -153 0 -5 -66 -76 -147 -157 l-148 -148 -152 152 -153
153 147 147 c81 82 152 148 158 148 5 0 74 -64 152 -142z m2211 -325 l-143
-143 -157 157 -158 158 142 142 143 143 157 -157 158 -158 -142 -142z m1100
294 l152 -152 -153 -153 -152 -152 -155 155 -155 155 150 150 c82 82 152 150
155 150 3 0 74 -69 158 -153z m1120 0 l152 -152 -155 -155 -155 -155 -155 155
-155 155 152 152 c84 84 155 153 158 153 3 0 74 -69 158 -153z m-6668 -302
l-155 -155 -145 145 -145 145 155 155 155 155 145 -145 145 -145 -155 -155z
m-1102 -23 l-157 -158 -151 151 -150 150 157 157 158 158 150 -150 150 -150
-157 -158z m-958 143 c0 -5 -69 -78 -152 -162 l-153 -153 -152 152 -153 153
157 157 158 158 147 -147 c82 -81 148 -152 148 -158z m3174 -1147 c-84 -84
-153 -159 -155 -166 -2 -7 -71 55 -154 138 l-150 150 153 153 c83 84 152 159
152 167 0 8 69 -54 152 -138 l153 -152 -151 -152z m1119 0 l-153 -153 -150
150 -150 150 152 152 153 153 150 -150 150 -150 -152 -152z m1112 302 l150
-150 -155 -155 -155 -155 -152 152 -153 153 152 152 c84 84 155 153 158 153 3
0 73 -68 155 -150z m1103 -327 l-143 -143 -157 157 -158 158 142 142 143 143
157 -157 158 -158 -142 -142z m1100 294 l152 -152 -153 -153 -152 -152 -155
155 -155 155 150 150 c82 82 152 150 155 150 3 0 74 -69 158 -153z m1120 0
l152 -152 -155 -155 -155 -155 -155 155 -155 155 152 152 c84 84 155 153 158
153 3 0 74 -69 158 -153z m-6668 -302 l-155 -155 -145 145 -145 145 155 155
155 155 145 -145 145 -145 -155 -155z m-1102 -23 l-157 -158 -151 151 -150
150 157 157 158 158 150 -150 150 -150 -157 -158z m-958 143 c0 -5 -69 -78
-152 -162 l-153 -153 -152 152 -153 153 157 157 158 158 147 -147 c82 -81 148
-152 148 -158z m3172 -1148 c-83 -84 -152 -159 -152 -167 0 -8 -70 55 -155
140 l-155 155 158 160 157 161 150 -148 150 -148 -153 -153z m1123 303 l150
-150 -153 -153 -152 -152 -152 152 -153 153 150 150 c82 82 152 150 155 150 3
0 73 -68 155 -150z m1110 0 l150 -150 -155 -155 -155 -155 -152 152 -153 153
152 152 c84 84 155 153 158 153 3 0 73 -68 155 -150z m1102 -328 l-142 -142
-158 158 -157 157 142 145 143 145 157 -160 158 -160 -143 -143z m1101 295
l152 -152 -153 -153 -152 -152 -155 155 -155 155 150 150 c82 82 152 150 155
150 3 0 74 -69 158 -153z m1120 0 l152 -152 -155 -155 -155 -155 -155 155
-155 155 152 152 c84 84 155 153 158 153 3 0 74 -69 158 -153z m-6656 6 c76
-76 138 -142 138 -148 0 -6 -69 -79 -153 -163 l-152 -152 -145 145 -145 145
155 155 c85 85 157 155 160 155 2 0 67 -62 142 -137z m-1114 -331 l-157 -158
-151 151 -150 150 157 157 158 158 150 -150 150 -150 -157 -158z m-958 143 c0
-5 -69 -78 -152 -162 l-153 -153 -152 152 -153 153 157 157 158 158 147 -147
c82 -81 148 -152 148 -158z m3163 -1158 l-162 -163 -148 148 -148 148 160 163
160 163 150 -148 150 -148 -162 -163z m1132 313 l150 -150 -155 -155 -155
-155 -152 152 -153 153 152 152 c84 84 155 153 158 153 3 0 73 -68 155 -150z
m1110 0 l150 -150 -158 -158 -157 -157 -152 153 -153 152 155 155 c85 85 157
155 160 155 3 0 73 -68 155 -150z m1098 -323 l-148 -147 -157 158 -158 157
147 147 148 148 158 -158 158 -158 -148 -147z m1104 291 l153 -153 -152 -152
c-84 -84 -157 -153 -163 -153 -6 0 -78 68 -160 150 l-150 150 155 155 c85 85
157 155 160 155 3 0 73 -69 157 -152z m1121 -1 l152 -152 -158 -158 -157 -157
-155 155 -155 155 155 155 c85 85 157 155 160 155 3 0 74 -69 158 -153z
m-6656 6 c76 -76 138 -142 138 -148 0 -6 -70 -80 -155 -165 l-155 -155 -145
145 -145 145 157 157 c87 87 160 158 163 158 2 0 67 -62 142 -137z m-1117
-333 l-160 -160 -150 150 -150 150 160 160 160 160 150 -150 150 -150 -160
-160z m-1110 -10 l-160 -160 -150 150 -150 150 160 160 160 160 150 -150 150
-150 -160 -160z m3312 -682 c74 -73 139 -141 145 -152 8 -16 -12 -41 -146
-175 l-155 -157 -148 148 -148 148 155 158 c85 88 157 160 159 161 3 0 65 -59
138 -131z m1135 -15 l148 -148 -152 -152 -153 -153 -152 152 -153 153 147 147
c81 82 152 148 158 148 5 0 76 -66 157 -147z m1103 -3 l150 -150 -153 -153
-152 -152 -152 152 -153 153 150 150 c82 82 152 150 155 150 3 0 73 -68 155
-150z m1103 -317 l-143 -143 -157 157 -158 158 142 142 143 143 157 -157 158
-158 -142 -142z m2222 -18 l-155 -155 -155 155 -155 155 155 155 155 155 155
-155 155 -155 -155 -155z m-6650 310 l145 -145 -158 -158 -157 -157 -147 148
-148 147 155 155 c85 85 157 155 160 155 3 0 70 -65 150 -145z m5527 -7 l153
-153 -147 -147 c-81 -82 -152 -148 -158 -148 -6 0 -78 68 -160 150 l-150 150
150 150 c82 83 152 150 155 150 3 0 73 -69 157 -152z m-6644 -320 l-158 -158
-150 150 -150 150 155 158 155 157 153 -150 152 -150 -157 -157z m-1110 -10
l-158 -158 -150 150 -150 150 155 158 155 157 153 -150 152 -150 -157 -157z
m3324 -690 c79 -79 143 -147 143 -152 0 -6 -70 -80 -155 -166 l-154 -156 -148
148 -148 148 155 158 c85 88 157 160 160 161 3 0 69 -63 147 -141z m1125 -5
l148 -148 -152 -152 -153 -153 -152 152 -153 153 147 147 c81 82 152 148 158
148 5 0 76 -66 157 -147z m1103 -3 l150 -150 -153 -153 -152 -152 -152 152
-153 153 150 150 c82 82 152 150 155 150 3 0 73 -68 155 -150z m1103 -317
l-143 -143 -157 157 -158 158 142 142 143 143 157 -157 158 -158 -142 -142z
m1104 -15 l-152 -153 -155 155 -155 155 152 152 153 153 155 -155 155 -155
-153 -152z m1118 -3 l-155 -155 -155 155 -155 155 155 155 155 155 155 -155
155 -155 -155 -155z m-6652 312 l142 -142 -157 -158 -158 -157 -145 145 -145
145 155 155 c85 85 157 155 160 155 3 0 69 -64 148 -143z m-1115 -329 l-158
-158 -147 147 c-82 81 -148 152 -148 158 0 5 69 78 152 162 l153 153 152 -152
153 -153 -157 -157z m-1110 -10 l-158 -158 -147 147 c-82 81 -148 152 -148
158 0 5 69 78 152 162 l153 153 152 -152 153 -153 -157 -157z"/>
</g>
</svg>
